<?xml version="1.0" standalone="no"?>
<!DOCTYPE svg PUBLIC "-//W3C//DTD SVG 20010904//EN"
 "http://www.w3.org/TR/2001/REC-SVG-20010904/DTD/svg10.dtd">
<svg version="1.0" xmlns="http://www.w3.org/2000/svg"
 width="1388.000000pt" height="1388.000000pt" viewBox="0 0 1388.000000 1388.000000"
 preserveAspectRatio="xMidYMid meet">
<metadata>
Created by potrace 1.11, written by Peter Selinger 2001-2013
</metadata>
<g transform="translate(0.000000,1388.000000) scale(0.100000,-0.100000)"
fill="#000000" stroke="none">
<path d="M0 6940 l0 -6940 6940 0 6940 0 0 6940 0 6940 -6940 0 -6940 0 0
-6940z m6730 3986 c65 -14 2079 -871 2170 -923 25 -14 77 -59 117 -98 73 -75
127 -167 154 -265 10 -34 14 -280 18 -983 l6 -938 988 -424 c620 -266 1009
-438 1044 -462 31 -21 76 -60 100 -88 52 -59 117 -188 132 -263 8 -36 11 -370
11 -1050 0 -1097 3 -1049 -62 -1182 -22 -45 -54 -88 -108 -142 l-77 -76 -1034
-517 c-569 -285 -1063 -529 -1099 -544 -58 -22 -79 -25 -190 -25 -118 -1 -129
1 -205 32 -44 18 -530 259 -1080 535 l-1000 502 -1031 -517 c-567 -284 -1062
-526 -1099 -537 -77 -24 -202 -28 -287 -9 -33 7 -451 211 -1123 546 l-1070
535 -76 76 c-82 82 -128 160 -154 258 -22 86 -22 2050 0 2136 39 150 160 303
295 372 25 12 478 208 1008 435 l962 412 0 902 c0 911 3 983 38 1076 42 113
144 237 244 297 82 49 2105 913 2173 928 79 18 155 18 235 1z"/>
<path d="M5620 9940 c-851 -366 -972 -420 -950 -428 14 -6 457 -195 985 -422
l960 -411 940 402 c517 222 960 411 984 422 l44 19 -977 419 c-538 231 -985
419 -994 418 -10 0 -456 -189 -992 -419z"/>
<path d="M8485 8855 c-66 -29 -450 -192 -852 -364 l-733 -313 0 -595 c0 -488
2 -594 13 -590 53 20 1684 722 1690 727 4 3 6 272 5 596 l-3 590 -120 -51z"/>
<path d="M3428 6838 c-489 -210 -888 -384 -888 -387 0 -3 402 -178 894 -389
l894 -383 896 383 c493 211 896 385 896 388 0 7 -1782 770 -1795 769 -6 0
-409 -172 -897 -381z"/>
<path d="M7998 6837 c-489 -209 -888 -383 -888 -386 0 -4 403 -179 895 -390
l895 -383 895 384 c492 210 895 386 895 389 0 7 -1782 769 -1795 768 -6 -1
-409 -172 -897 -382z"/>
<path d="M5475 5546 l-850 -363 -3 -762 c-1 -418 0 -761 3 -761 3 0 388 191
855 425 l850 425 0 700 c0 385 -1 700 -2 700 -2 -1 -385 -164 -853 -364z"/>
<path d="M10045 5545 l-850 -363 -3 -761 c-1 -419 0 -761 3 -761 3 0 388 191
855 425 l850 425 0 700 c0 385 -1 700 -2 700 -2 -1 -385 -165 -853 -365z"/>
</g>
</svg>
